HIERARCHY
ROOT Hips
{
	OFFSET	0.00	0.00	0.00
	CHANNELS 6 Xposition Yposition Zposition Zrotation Xrotation Yrotation
	JOINT LeftUpLeg
	{
		OFFSET	 0.126116	-0.014019	-0.065224
		CHANNELS 3 Zrotation Xrotation Yrotation
		JOINT LeftLeg
		{
			OFFSET	 0.000000	 0.000000	 0.569914
			CHANNELS 3 Zrotation Xrotation Yrotation
			JOINT LeftFoot
			{
				OFFSET	 0.000000	 0.000000	 0.544423
				CHANNELS 3 Zrotation Xrotation Yrotation
				JOINT LeftToeBase
				{
					OFFSET	 0.000000	 0.000000	 0.207117
					CHANNELS 3 Zrotation Xrotation Yrotation
					End Site
					{
						OFFSET	 0.000000	 0.000000	 0.207117
					}
				}
			}
		}
	}
	JOINT RightUpLeg
	{
		OFFSET	-0.124023	-0.008373	-0.065224
		CHANNELS 3 Zrotation Xrotation Yrotation
		JOINT RightLeg
		{
			OFFSET	 0.000000	 0.000000	 0.570047
			CHANNELS 3 Zrotation Xrotation Yrotation
			JOINT RightFoot
			{
				OFFSET	 0.000000	 0.000000	 0.544354
				CHANNELS 3 Zrotation Xrotation Yrotation
				JOINT RightToeBase
				{
					OFFSET	 0.000000	 0.000000	 0.207540
					CHANNELS 3 Zrotation Xrotation Yrotation
					End Site
					{
						OFFSET	 0.000000	 0.000000	 0.207540
					}
				}
			}
		}
	}
	JOINT Spine
	{
		OFFSET	 0.000184	-0.007763	 0.117403
		CHANNELS 3 Zrotation Xrotation Yrotation
		JOINT Spine1
		{
			OFFSET	 0.000000	 0.000000	 0.137269
			CHANNELS 3 Zrotation Xrotation Yrotation
			JOINT Spine2
			{
				OFFSET	 0.000000	 0.000000	 0.156879
				CHANNELS 3 Zrotation Xrotation Yrotation
				JOINT LeftShoulder
				{
					OFFSET	 0.080501	-0.002496	 0.160144
					CHANNELS 3 Zrotation Xrotation Yrotation
					JOINT LeftArm
					{
						OFFSET	 0.000000	 0.000000	 0.164363
						CHANNELS 3 Zrotation Xrotation Yrotation
						JOINT LeftForeArm
						{
							OFFSET	 0.000000	 0.000000	 0.364576
							CHANNELS 3 Zrotation Xrotation Yrotation
							JOINT LeftHand
							{
								OFFSET	 0.000000	 0.000000	 0.360812
								CHANNELS 3 Zrotation Xrotation Yrotation
								JOINT LeftHandIndex1
								{
									OFFSET	 0.000000	 0.000000	 0.086006
									CHANNELS 3 Zrotation Xrotation Yrotation
									JOINT LeftHandIndex2
									{
										OFFSET	 0.000000	 0.000000	 0.047236
										CHANNELS 3 Zrotation Xrotation Yrotation
										JOINT LeftHandIndex3
										{
											OFFSET	-0.004284	-0.000551	 0.038166
											CHANNELS 3 Zrotation Xrotation Yrotation
											End Site
											{
												OFFSET	-0.004284	-0.000551	 0.038166
											}
										}
									}
								}
							}
						}
					}
				}
				JOINT Neck
				{
					OFFSET	 0.000000	 0.000000	 0.176489
					CHANNELS 3 Zrotation Xrotation Yrotation
					JOINT Head
					{
						OFFSET	 0.000000	-0.001747	 0.077940
						CHANNELS 3 Zrotation Xrotation Yrotation
						End Site
						{
							OFFSET	 0.000000	-0.001747	 0.077940
						}
					}
				}
				JOINT RightShoulder
				{
					OFFSET	-0.080363	 0.000306	 0.159706
					CHANNELS 3 Zrotation Xrotation Yrotation
					JOINT RightArm
					{
						OFFSET	 0.000000	 0.000000	 0.164196
						CHANNELS 3 Zrotation Xrotation Yrotation
						JOINT RightForeArm
						{
							OFFSET	 0.000000	 0.000000	 0.365611
							CHANNELS 3 Zrotation Xrotation Yrotation
							JOINT RightHand
							{
								OFFSET	 0.000000	 0.000000	 0.360648
								CHANNELS 3 Zrotation Xrotation Yrotation
								JOINT RightHandIndex1
								{
									OFFSET	 0.000000	 0.000000	 0.069977
									CHANNELS 3 Zrotation Xrotation Yrotation
									JOINT RightHandIndex2
									{
										OFFSET	 0.000000	 0.000000	 0.052305
										CHANNELS 3 Zrotation Xrotation Yrotation
										JOINT RightHandIndex3
										{
											OFFSET	 0.009002	-0.000782	 0.042196
											CHANNELS 3 Zrotation Xrotation Yrotation
											End Site
											{
												OFFSET	 0.009002	-0.000782	 0.042196
											}
										}
									}
								}
							}
						}
					}
				}
			}
		}
	}
}
MOTION
Frames:    7
Frame Time: 0.03333334
-0.000047	 0.042282	 1.276696	-0.087481	 2.368947	 0.439298	-12.105160	-5.365754	 179.875200	 2.302655	-12.964960	 0.610498	 0.591631	 71.320990	-0.859636	-2.385833	 28.452750	 0.000004	 19.712670	-5.009503	-179.901300	-0.796821	-11.612470	 0.877127	 4.921633	 70.324650	 1.456672	 2.384659	 28.388700	-0.000001	-6.191357	 6.305285	 1.370149	-3.069204	-3.363728	-0.251460	 9.541481	 5.966485	-0.577864	-91.198520	 69.988620	-177.895000	-7.942142	 2.081972	-0.826981	 23.312260	-9.242594	-35.253810	-10.280320	-29.439990	-4.589798	-2.027600	 6.559038	 9.033609	-5.188889	 0.308190	 3.541030	-5.234859	 0.342567	 0.430617	 4.310578	 17.262430	-6.521368	 4.647936	-13.201310	 2.181491	 89.054300	 68.958850	 177.447800	 9.220998	 6.938567	 6.569985	-26.837100	-7.683631	 21.019570	 8.167542	-29.570710	 7.044769	 1.803333	 3.979147	-15.098590	 4.898592	 3.004813	-9.310344	 5.224449	 0.395017	 2.014677
-0.000179	 0.043055	 1.277526	-0.075467	 2.631270	 0.439650	-12.142070	-5.458387	 179.797400	 2.242311	-12.508150	 0.576246	 0.408232	 70.972690	-0.601912	-2.385833	 28.452750	 0.000004	 19.705030	-5.049374	-179.774800	-0.794970	-11.069070	 0.836969	 4.996543	 69.953950	 1.356712	 2.384659	 28.388700	-0.000001	-6.226539	 6.496778	 1.428660	-3.112936	-4.088503	-0.341339	 9.624240	 6.816365	-0.667848	-91.132120	 69.532040	-177.740600	-7.699836	 1.782744	-1.229806	 23.118070	-9.208504	-35.582300	-9.670766	-30.283240	-4.738371	-2.027600	 6.559038	 9.033609	-5.188889	 0.308190	 3.541030	-5.234859	 0.342567	 0.430617	 4.447623	 18.455640	-6.897695	 4.785522	-14.075490	 2.209959	 88.963740	 68.331240	 177.262500	 8.851996	 6.393125	 7.057312	-26.860030	-7.812364	 21.313060	 7.435385	-30.186510	 6.841321	 1.803333	 3.979147	-15.098590	 4.898592	 3.004813	-9.310344	 5.224449	 0.395017	 2.014677
-0.000454	 0.044737	 1.278960	-0.047901	 3.151801	 0.443979	-12.218320	-5.701944	 179.633900	 2.145965	-11.708640	 0.520359	 0.036526	 70.347020	-0.102992	-2.385833	 28.452750	 0.000004	 19.681480	-5.174153	-179.529300	-0.792151	-10.066090	 0.762457	 5.161123	 69.247890	 1.143731	 2.384659	 28.388700	-0.000001	-6.273438	 6.856212	 1.537713	-3.199709	-5.419533	-0.508945	 9.761854	 8.380435	-0.838010	-91.007590	 68.701930	-177.468700	-7.228375	 1.434518	-1.944500	 22.735750	-9.155813	-36.292500	-8.620893	-31.969180	-5.082533	-2.027600	 6.559038	 9.033609	-5.188889	 0.308190	 3.541030	-5.234859	 0.342567	 0.430617	 4.693075	 20.660570	-7.597206	 5.065012	-15.710240	 2.276154	 88.787140	 67.143200	 176.926000	 8.178622	 5.543706	 7.915208	-26.879890	-8.077229	 21.941670	 6.086021	-31.446470	 6.481034	 1.803333	 3.979147	-15.098590	 4.898592	 3.004813	-9.310344	 5.224449	 0.395017	 2.014677
-0.000816	 0.046686	 1.279961	 0.001201	 3.734025	 0.465987	-12.322570	-6.198467	 179.425000	 2.146668	-11.274000	 0.501432	-0.487742	 69.995000	 0.465940	-2.385833	 28.452750	 0.000004	 19.624700	-5.505547	-179.293500	-0.799919	-9.322422	 0.705391	 5.398433	 68.657900	 0.866877	 2.384659	 28.388700	-0.000001	-6.210276	 7.142898	 1.623016	-3.248597	-6.669675	-0.697320	 9.738272	 9.640937	-0.949947	-90.932990	 68.177480	-177.322400	-6.857683	 1.601545	-2.368892	 22.333410	-9.082994	-37.021080	-8.047997	-33.758350	-5.578955	-2.027600	 6.559038	 9.033609	-5.188889	 0.308190	 3.541030	-5.234859	 0.342567	 0.430617	 4.713499	 22.263460	-8.060098	 5.338135	-17.023770	 2.389388	 88.643790	 66.129460	 176.686200	 7.545739	 5.062404	 8.483981	-26.719650	-8.267551	 22.587670	 5.031475	-32.788840	 6.288217	 1.803333	 3.979147	-15.098590	 4.898592	 3.004813	-9.310344	 5.224449	 0.395017	 2.014677
-0.001180	 0.048871	 1.280829	 0.051062	 4.323739	 0.488079	-12.457730	-6.749204	 179.203000	 2.122392	-10.908270	 0.486348	-1.007645	 69.658050	 1.026507	-2.385833	 28.452750	 0.000004	 19.564680	-5.881394	-179.053900	-0.806999	-8.626991	 0.652114	 5.661036	 68.073570	 0.560416	 2.384659	 28.388700	-0.000001	-6.140390	 7.432725	 1.704525	-3.306411	-7.831749	-0.862643	 9.715365	 10.875980	-1.065541	-90.855550	 67.645970	-177.175600	-6.409163	 1.977503	-2.859193	 21.935630	-9.009498	-37.770910	-7.543291	-35.605210	-6.129616	-2.027600	 6.559038	 9.033609	-5.188889	 0.308190	 3.541030	-5.234859	 0.342567	 0.430617	 4.748589	 23.889340	-8.527722	 5.620666	-18.349080	 2.514490	 88.493920	 65.102440	 176.446900	 6.932728	 4.808398	 9.097399	-26.569960	-8.459674	 23.230590	 3.990269	-34.198760	 6.113193	 1.803333	 3.979147	-15.098590	 4.898592	 3.004813	-9.310344	 5.224449	 0.395017	 2.014677
-0.001572	 0.051612	 1.281785	 0.111490	 5.059592	 0.529339	-12.503760	-7.444520	 178.926500	 2.193404	-10.469350	 0.464909	-1.633285	 69.268990	 1.721347	-2.385833	 28.452760	 0.000004	 19.447560	-6.301985	-178.764500	-0.949465	-7.648545	 0.559563	 6.080713	 67.340720	 0.220370	 2.384659	 28.388700	-0.000001	-6.027092	 7.711825	 1.758508	-3.379363	-9.238627	-1.042103	 9.621122	 12.178140	-1.207522	-90.825740	 66.947330	-177.204600	-5.715139	 2.395068	-3.174836	 21.192540	-8.654076	-38.578600	-7.568109	-37.565440	-6.954829	-2.027600	 6.559038	 9.033609	-5.188889	 0.308190	 3.541030	-5.234859	 0.342567	 0.430617	 4.639143	 25.060660	-8.751688	 5.824188	-19.376960	 2.549439	 88.415990	 63.967510	 176.427400	 6.038785	 4.593428	 9.501556	-26.180050	-8.536556	 23.889050	 3.076700	-35.682220	 6.181968	 1.803333	 3.979147	-15.098590	 4.898592	 3.004813	-9.310344	 5.224449	 0.395017	 2.014677
-0.002015	 0.055076	 1.282798	 0.184604	 5.955683	 0.587166	-12.711580	-8.314730	 178.556900	 2.121714	-9.977866	 0.440078	-2.370595	 68.816600	 2.548037	-2.385832	 28.452790	-0.000001	 19.276240	-6.757108	-178.415800	-1.203872	-6.316613	 0.434432	 6.647470	 66.396440	-0.167347	 2.384659	 28.388700	-0.000001	-5.868458	 7.991228	 1.792235	-3.466868	-10.801270	-1.220913	 9.463826	 13.566070	-1.372146	-90.834100	 66.078280	-177.359300	-4.745154	 2.948479	-3.487275	 20.171190	-8.038260	-39.400740	-8.060484	-39.737680	-8.074340	-2.027600	 6.559038	 9.033609	-5.188889	 0.308190	 3.541030	-5.234859	 0.342567	 0.430617	 4.408396	 25.979990	-8.806194	 5.972384	-20.256880	 2.519380	 88.393620	 62.675390	 176.560000	 4.860800	 4.485546	 9.880026	-25.604710	-8.492360	 24.502150	 2.235890	-37.335460	 6.463422	 1.803333	 3.979147	-15.098590	 4.898592	 3.004813	-9.310344	 5.224449	 0.395017	 2.014677
